<?xml version="1.0" encoding="utf-8" ?>
<svg xmlns="http://www.w3.org/2000/svg" xmlns:xlink="http://www.w3.org/1999/xlink" width="437" height="410">
	<path fill="#0D0D0D" transform="matrix(0.426758 0 0 0.426758 -3.05176e-05 0)" d="M-0 -0L1024 0L1024 1024L-0 1024L0 -0Z"/>
	<path fill="#9B9B9B" transform="matrix(0.426758 0 0 0.426758 -3.05176e-05 0)" d="M83.2728 76.2451L664.315 76.2576L850.746 76.3396L914.369 76.0973C924.408 76.0679 934.827 75.3976 944.803 76.1361C954.052 76.8206 962.654 79.6301 970.366 84.8129C981.544 92.3245 990.309 104.161 992.904 117.51L993.092 118.5C993.806 122.058 994.018 125.497 994.114 129.114L994.39 181.271L994.464 274.455L994.457 542.212L994.484 680.152L994.536 721.71C994.543 728.431 995.136 735.79 994.325 742.448C992.943 753.794 987.005 766.17 979.093 774.396C972.201 781.56 961.59 787.19 951.789 788.77C940.613 790.57 928.078 789.362 916.755 789.266L857.312 788.989L699.212 789.125L609.039 789.291C609.698 794.124 611.557 798.841 612.953 803.5L622.393 834.886L635.047 878.992C645.342 878.978 718.929 877.868 722.254 879.665C724.348 880.798 726.199 882.882 726.696 885.269C727.189 887.64 726.931 890.43 726.931 892.851L726.929 906.625L726.894 927.662C726.884 931.557 727.165 935.723 726.661 939.578C726.423 941.4 725.943 942.828 724.814 944.308C723.626 945.866 721.726 947.172 719.75 947.379C717.018 947.666 714.016 947.33 711.25 947.306L693.857 947.259L632.698 947.131L435.33 947.11L346.619 947.406L319.719 947.451C315.294 947.452 310.466 947.816 306.08 947.283C304.416 947.081 302.872 946.517 301.615 945.379C300.165 944.067 299.588 942.146 299.471 940.242C298.783 929.014 299.435 917.321 299.45 906.053C299.459 899.352 298.63 891.313 299.627 884.75C299.86 883.216 300.72 881.966 301.783 880.863C302.789 879.821 304.042 879.213 305.495 879.045C313.744 878.092 323.009 878.939 331.362 878.953L388.346 879.068L415.488 789.694C411.694 788.608 405.098 789.383 400.985 789.361L359.52 789.262L160.963 789.232L105.207 789.228C95.3646 789.224 84.5445 790.081 74.8262 788.668C64.6949 787.194 55.3505 783.106 47.7376 776.177C37.4039 766.771 30.7719 753.295 30.1591 739.277L30.0229 696.087L29.9622 613.312L29.9249 356.027L29.9398 196.607L29.9626 148.924C29.9734 140.69 29.3871 131.878 30.3586 123.725C31.6821 112.618 36.5946 101.827 44.1907 93.6248C55.0917 81.854 67.3809 76.8535 83.2728 76.2451Z"/>
	<path fill="#0D0D0D" transform="matrix(0.426758 0 0 0.426758 -3.05176e-05 0)" d="M314.752 894.734L711.439 894.443L711.252 931.858L314.859 931.889L314.752 894.734Z"/>
	<path fill="#0D0D0D" transform="matrix(0.426758 0 0 0.426758 -3.05176e-05 0)" d="M482.45 789.241L592.31 789.234C593.791 791.743 594.518 795.095 595.349 797.895L600.121 814.13L610.205 849.24L618.883 878.985L540.639 878.812L404.449 879.059L431.771 789.522L482.45 789.241Z"/>
	<path fill="#0D0D0D" transform="matrix(0.426758 0 0 0.426758 -3.05176e-05 0)" d="M80.9072 91.7268L133.899 91.6204L252.596 91.6154L641.271 91.3917L846.887 91.5061L912.316 91.5146C922.994 91.5124 934.246 90.7952 944.875 91.6512C953.338 92.3327 960.841 95.5953 967.061 101.354C975.324 109.004 978.48 119.055 978.906 130.058L979.016 177.385L979.347 256.06L979.37 497.182L979.38 659.715L979.283 716.217C979.216 725.277 979.649 734.789 978.797 743.783C978.202 750.076 975.422 755.551 971.108 760.123C963.712 767.961 953.404 773.697 942.511 774.059L318.065 773.876L148.585 773.895L100.334 773.944C92.1492 773.949 83.1085 774.816 75.0781 773.409C65.8706 771.796 57.3095 765.62 52.0878 757.959C47.8542 751.748 45.6615 744.907 45.3048 737.42L45.2352 671.202L45.1933 570.333L45.3408 285.008L45.2433 167.582L45.2989 138.342C45.3143 133.326 44.806 127.394 45.8196 122.49L45.986 121.75C47.2132 116.143 49.6648 110.35 53.25 105.832C59.0907 98.4719 67.7307 93.1236 77.1461 92.073L80.9072 91.7268Z"/>
	<path fill="#9B9B9B" transform="matrix(0.426758 0 0 0.426758 -3.05176e-05 0)" d="M868.737 698.166C872.033 697.967 875.325 698.68 878.266 700.17C882.71 702.422 886.848 706.765 888.2 711.658C889.649 716.897 888.901 722.679 886.025 727.284C882.592 732.779 877.891 735.339 871.744 736.643C865.943 736.737 862.011 736.028 857.316 732.372C853.335 729.271 850.661 724.516 850.112 719.486C849.554 714.372 851.275 709.236 854.48 705.266C858.228 700.624 863.02 698.884 868.737 698.166Z"/>
	<path fill="#9B9B9B" transform="matrix(0.426758 0 0 0.426758 -3.05176e-05 0)" d="M99.3105 137.703L170.639 138.012L314.901 137.982L727.646 137.874L846.227 137.829L897.562 137.631L923.239 137.662C924.949 137.73 926.661 137.968 928.143 138.88C930.208 140.151 931.261 141.466 931.831 143.795C932.729 147.462 932.086 152.442 932.073 156.25L932.049 180.602L932.021 292.012L932.095 530.322L932.188 613.307L932.222 639.167C932.224 643.63 932.559 648.382 932.095 652.814C931.953 654.171 931.664 655.328 930.953 656.5C929.351 659.138 927.417 660.095 924.517 660.852L846.484 660.769L696.526 660.648L217.682 660.538C204.344 660.539 100.234 661.642 96.8134 659.948C94.3644 658.735 92.8084 656.642 92.0757 654.063C90.9254 650.014 91.5728 644.397 91.5844 640.145L91.5936 614.911L91.6567 488.819L91.5196 254.656L91.5215 182.595C91.5177 170.77 90.7809 158.432 91.585 146.658C91.7093 144.838 92.0022 143.094 92.9925 141.527C94.5995 138.986 96.4858 138.348 99.3105 137.703Z"/>
	<path fill="#0D0D0D" transform="matrix(0.426758 0 0 0.426758 -3.05176e-05 0)" d="M872.033 153.254L916.542 153.044L916.578 645.045C914.166 646.25 763.203 645.233 744.714 645.235L150.75 645.411L107.21 645.383L107.253 153.413L872.033 153.254Z"/>
	<path fill="#9B9B9B" transform="matrix(0.426758 0 0 0.426758 -3.05176e-05 0)" d="M159.451 266.061C166.078 265.587 172.981 265.993 179.64 265.989L220.044 265.977L247.986 265.995C251.79 266 256.83 265.403 260.443 266.307C262.705 266.872 264.67 268.274 265.809 270.345C266.681 271.928 266.887 274.143 266.34 275.866C265.45 278.67 263.038 280.07 260.551 281.26C253.836 281.761 246.862 281.432 240.124 281.433L203.753 281.428L174.133 281.458C169.687 281.465 163.585 282.195 159.381 280.95C157.459 280.38 155.909 279.003 154.967 277.25C154.015 275.481 153.913 273.254 154.496 271.356C155.328 268.644 157.088 267.414 159.451 266.061Z"/>
	<path fill="#9B9B9B" transform="matrix(0.426758 0 0 0.426758 -3.05176e-05 0)" d="M724.793 518.181L755.957 518.093L816.079 518.033L845.463 518.015C850.143 518.018 855.622 517.469 860.17 518.314L860.75 518.434C862.136 518.697 862.845 519.01 863.861 520.052C865.569 521.805 866.254 523.604 866.138 526.046C866.032 528.262 865.058 530.4 863.313 531.804C862.3 532.62 861.167 533.042 859.947 533.447L761.27 533.553L734.979 533.566C731.571 533.568 726.403 534.258 723.25 533.082C721.108 532.282 719.192 530.729 718.369 528.544C717.646 526.623 717.84 524.21 718.834 522.421C720.198 519.966 722.142 518.84 724.793 518.181Z"/>
	<path fill="#9B9B9B" transform="matrix(0.426758 0 0 0.426758 -3.05176e-05 0)" d="M160.467 201.153L378.793 201.528C380.546 202.558 382.338 204.016 383.161 205.914C383.924 207.67 383.987 210.202 383.176 211.938C381.946 214.572 379.915 215.602 377.284 216.469L209.681 216.497C202 216.499 161.589 217.379 158.807 216.082C156.801 215.146 154.719 212.948 154.056 210.815C153.446 208.85 153.754 206.703 154.772 204.928C156.119 202.582 157.98 201.877 160.467 201.153Z"/>
	<path fill="#9B9B9B" transform="matrix(0.426758 0 0 0.426758 -3.05176e-05 0)" d="M559.951 295.017C561.396 294.992 562.851 295.051 564.25 295.45C566.102 295.979 567.736 297.627 568.609 299.303C569.666 301.332 569.759 303.873 568.982 306C567.376 310.394 565.027 314.691 562.995 318.905L553.797 338.394L524.603 401.303L488.278 479.784C483.388 490.368 479.165 501.56 473.629 511.813C472.547 513.816 471.273 514.854 469.25 515.823C467.475 516.057 465.685 516.164 463.981 515.518C462.142 514.821 460.654 513.296 459.885 511.5C458.877 509.149 459.281 506.341 460.25 504.055L484.975 450.875L516.247 383.261L543.414 324.339C547.143 316.311 550.371 307.666 554.626 299.937C556.021 297.403 557.247 296.09 559.951 295.017Z"/>
	<path fill="#9B9B9B" transform="matrix(0.426758 0 0 0.426758 -3.05176e-05 0)" d="M625.362 582.15C631.518 581.768 637.817 582.009 643.988 581.991L677.091 581.91L782.822 581.903L837.783 581.95L852.319 581.974C855.015 581.979 858.193 581.702 860.81 582.4C862.815 582.935 864.782 584.573 865.698 586.429C866.661 588.38 866.592 590.317 865.86 592.317C864.886 594.979 862.945 596.342 860.486 597.531L682.81 597.494L640.418 597.483L630.23 597.481C628.217 597.481 625.703 597.698 623.786 597.004C622.186 596.424 620.261 594.981 619.694 593.339C618.912 591.078 618.791 588.116 620.057 585.989C621.32 583.868 623.065 582.834 625.362 582.15Z"/>
	<path fill="#9B9B9B" transform="matrix(0.426758 0 0 0.426758 -3.05176e-05 0)" d="M435.487 324.25L436.309 324.207C438.738 324.2 440.83 324.95 442.404 326.837C444.065 328.829 444.81 331 444.428 333.599C444.142 335.552 442.732 337.246 441.234 338.446C438.408 340.71 434.957 342.502 431.885 344.442L414.042 355.821L341.249 402.594C351.169 410.13 362.007 416.814 372.437 423.633L407.984 447.202L428.972 461.109C432.426 463.401 438.499 466.379 440.452 470.029C441.32 471.65 441.339 473.999 440.665 475.7C439.772 477.953 437.643 479.941 435.396 480.807C433.303 481.614 431.698 480.997 429.742 480.211L351.935 428.485C342.623 422.239 332.549 416.537 323.663 409.765C322.014 408.507 320.036 406.9 319.385 404.862C318.869 403.248 318.68 400.75 319.616 399.25C320.473 397.879 321.933 396.655 323.237 395.72C326.366 393.478 329.874 391.716 333.105 389.602L363.091 370.267L411.609 339.097L425.945 329.714C428.945 327.722 431.99 325.225 435.487 324.25Z"/>
	<path fill="#9B9B9B" transform="matrix(0.426758 0 0 0.426758 -3.05176e-05 0)" d="M584.065 324.542C585.319 324.381 586.729 324.196 587.985 324.392C590.184 324.734 592.546 326.555 594.424 327.734L607.823 336.244L664.92 372.656L702.088 395.687C703.017 396.308 703.884 397.014 704.537 397.931C705.649 399.492 705.804 401.746 705.449 403.587C705.06 405.604 703.313 406.972 701.775 408.143C697.869 411.116 693.407 413.518 689.261 416.162L666.737 430.697L593.061 477.87C591.13 479.109 588.841 480.9 586.5 481.121C584.067 481.351 582.028 480.725 580.224 479.058C578.653 477.607 577.532 475.307 577.559 473.144C577.587 471.029 578.78 469.189 580.289 467.801C582.26 465.987 585.003 464.59 587.292 463.162L600.588 454.792L656.279 419.383C664.709 413.963 674.599 408.669 682.101 402.096C677.086 398.041 671.292 394.699 665.834 391.266L641.034 375.814L600.966 350.164L588.426 342.337C585.538 340.556 582.36 338.839 580.25 336.114C578.893 334.362 578.703 332.196 579.085 330.048C579.592 327.198 581.8 325.99 584.065 324.542Z"/>
</svg>
